<?xml version="1.0" encoding="utf-8"?>
<!-- Generator: Adobe Illustrator 26.0.2, SVG Export Plug-In . SVG Version: 6.00 Build 0)  -->
<svg version="1.1" id="Layer_1" xmlns="http://www.w3.org/2000/svg" xmlns:xlink="http://www.w3.org/1999/xlink" x="0px" y="0px"
	 viewBox="0 0 1105.7 304.6" style="enable-background:new 0 0 1105.7 304.6;" xml:space="preserve">
<style type="text/css">
	.st0{fill:#00303F;}
</style>
<g>
	<path d="M633.5,692c1.1,0,1.9-0.2,2.4-0.6c0,0,0,0,0,0.1c-0.5,0.4-1.1,0.6-1.7,0.6C633.9,692.1,633.7,692.1,633.5,692z"/>
	<path class="st0" d="M325.5,247.6c41.3,21.7,86.9,44,148.6,24c20.5-6.4,44.2-15.3,62.3-40.1c20.8-36.5-7-57.8-21.4-70.8
		c-11.2-7.7-28.4-27.1-44.7-23.2c-41.9,6.1-82.7,13.3-126.5,26.7c-10.6,4.8-44.5,13.7-55.6,28c-3.5,4.5-4.8,9.5-2.3,15.1
		c0.8,1.6,1.6,3.2,2.5,4.8c1.9,3.4,4,6.5,6.3,9.4C303.1,232.1,314.3,240.1,325.5,247.6z M1103.5,68.6c4,7.1,3.2,16.2-6.3,28.4
		c-1.4,1.8-3.1,3.7-4.9,5.7c-2.9,2.7-5.8,4.7-8.9,6.4c-3.4,1.9-6.8,2.8-10.2,4.1c-11,21.7-32.9,21.7-48,29.3
		c-38.9,14.2-77.2,25.4-115.8,38.1c-7.4,2.7-14.8,5.3-21.3,5c-10.7,0.1-1.5-20.4,9-25.1c27.7-16.9,54.5-22.7,81.6-33.6
		c-147.8-9.9-298.8-13.6-458.5,4.4c18.5,15.9,42.8,29.1,42,63.9c0.2,12.6-4,28.3-14.4,42.3c-41,57.5-111.5,69.6-150.4,66.6
		c-43.4-5.2-138.3-36.7-136.5-92.8c8.7-35.3,44.6-58.2,70.3-66.5c37.1-15.9,72.3-22.3,107.4-29.8c-75.2-38.5-168.3-46.2-269.2-33
		c-34.1,3.5-69,8.7-104.7,17.1c-17.7,6.2-42,6.7-59.3,19.7c14.7,6.9,34.9,4.9,52.3,7.1c-9.4,0.4-18.9,0.5-28.3,0.6
		c-10-0.9-22,1.3-29.1-4.5c-0.9-0.6,0.2-2.8,1.3-3.8c11.4-12.2,23.8-15,35.4-19c63.6-23.6,123.3-31.7,181.9-38.4
		c89.4-12.3,168.3,1.4,235.3,33.6c33.7,19.1,30.3,11.4,74.4,7.1c70.3-8,139.8-13.8,207.2-14.5c75.5-2.5,148.5,0.8,220.8,5.5
		c28.4,1.9,57.4,2.5,86.5,3c11.5,0.7,22.6,1.8,36.7-6.2c-41.6-23.4-94.7-28.8-142-42.8c-39.9-9.4-79.8-19.4-109-45.5
		c24.9-1.7,49.3-1.7,71.5,2.7c49.9,12.7,100.2,24.8,149.6,38.5c10.4,4.9,40.7,9.7,51.8,23.6C1102.3,66.7,1102.9,67.6,1103.5,68.6z"
		/>
	<path d="M857.2,402.7c0.2,0.9,0.4,1.8,0.6,2.6C857.5,404.4,857.3,403.5,857.2,402.7z"/>
	<path d="M960.7-761.3c0.1,0,0.2,0,0.2,0.1c0,0.1,0,0.1,0,0.2C960.9-761.2,960.8-761.2,960.7-761.3z"/>
</g>
</svg>
